<?xml version="1.0" standalone="no"?>
<!DOCTYPE svg PUBLIC "-//W3C//DTD SVG 1.1//EN" "http://www.w3.org/Graphics/SVG/1.1/DTD/svg11.dtd">
<svg version="1.1" xmlns="http://www.w3.org/2000/svg" viewBox="0 0 322.1867193800099 363.57129695003005" width="322.1867193800099" height="363.57129695003005"><!-- svg-source:excalidraw --><metadata></metadata><defs><style class="style-fonts">
      </style></defs><g stroke-linecap="round" transform="translate(237.6941358901986 10) rotate(0 37.24629174490565 171.78564847501502)"><path d="M18.62 0 C29.55 0, 40.48 0, 55.87 0 C68.28 0, 74.49 6.21, 74.49 18.62 C74.49 113.91, 74.49 209.19, 74.49 324.95 C74.49 337.36, 68.28 343.57, 55.87 343.57 C45.08 343.57, 34.3 343.57, 18.62 343.57 C6.21 343.57, 0 337.36, 0 324.95 C0 248.11, 0 171.27, 0 18.62 C0 6.21, 6.21 0, 18.62 0" stroke="none" stroke-width="0" fill="#e9ecef"></path><path d="M18.62 0 C28.99 0, 39.35 0, 55.87 0 M18.62 0 C29.4 0, 40.17 0, 55.87 0 M55.87 0 C68.28 0, 74.49 6.21, 74.49 18.62 M55.87 0 C68.28 0, 74.49 6.21, 74.49 18.62 M74.49 18.62 C74.49 117.22, 74.49 215.81, 74.49 324.95 M74.49 18.62 C74.49 133.71, 74.49 248.8, 74.49 324.95 M74.49 324.95 C74.49 337.36, 68.28 343.57, 55.87 343.57 M74.49 324.95 C74.49 337.36, 68.28 343.57, 55.87 343.57 M55.87 343.57 C42.34 343.57, 28.81 343.57, 18.62 343.57 M55.87 343.57 C41.35 343.57, 26.82 343.57, 18.62 343.57 M18.62 343.57 C6.21 343.57, 0 337.36, 0 324.95 M18.62 343.57 C6.21 343.57, 0 337.36, 0 324.95 M0 324.95 C0 216.19, 0 107.43, 0 18.62 M0 324.95 C0 223.12, 0 121.29, 0 18.62 M0 18.62 C0 6.21, 6.21 0, 18.62 0 M0 18.62 C0 6.21, 6.21 0, 18.62 0" stroke="transparent" stroke-width="2" fill="none"></path></g><g stroke-linecap="round" transform="translate(123.84706754598665 131.16284987903236) rotate(0 37.246291490978365 111.20422336435695)"><path d="M18.62 0 C29.11 0, 39.6 0, 55.87 0 C68.28 0, 74.49 6.21, 74.49 18.62 C74.49 75.63, 74.49 132.64, 74.49 203.79 C74.49 216.2, 68.28 222.41, 55.87 222.41 C43.99 222.41, 32.12 222.41, 18.62 222.41 C6.21 222.41, 0 216.2, 0 203.79 C0 139.55, 0 75.31, 0 18.62 C0 6.21, 6.21 0, 18.62 0" stroke="none" stroke-width="0" fill="#e9ecef"></path><path d="M18.62 0 C33.19 0, 47.77 0, 55.87 0 M18.62 0 C26.54 0, 34.46 0, 55.87 0 M55.87 0 C68.28 0, 74.49 6.21, 74.49 18.62 M55.87 0 C68.28 0, 74.49 6.21, 74.49 18.62 M74.49 18.62 C74.49 66.04, 74.49 113.45, 74.49 203.79 M74.49 18.62 C74.49 72.36, 74.49 126.1, 74.49 203.79 M74.49 203.79 C74.49 216.2, 68.28 222.41, 55.87 222.41 M74.49 203.79 C74.49 216.2, 68.28 222.41, 55.87 222.41 M55.87 222.41 C43.97 222.41, 32.07 222.41, 18.62 222.41 M55.87 222.41 C41.97 222.41, 28.08 222.41, 18.62 222.41 M18.62 222.41 C6.21 222.41, 0 216.2, 0 203.79 M18.62 222.41 C6.21 222.41, 0 216.2, 0 203.79 M0 203.79 C0 152.54, 0 101.3, 0 18.62 M0 203.79 C0 144.97, 0 86.15, 0 18.62 M0 18.62 C0 6.21, 6.21 0, 18.62 0 M0 18.62 C0 6.21, 6.21 0, 18.62 0" stroke="transparent" stroke-width="2" fill="none"></path></g><g stroke-linecap="round" transform="translate(10 242.36707287912668) rotate(0 37.246291490978365 55.60211159468736)"><path d="M18.62 0 C29.07 0, 39.51 0, 55.87 0 C68.28 0, 74.49 6.21, 74.49 18.62 C74.49 41.26, 74.49 63.89, 74.49 92.58 C74.49 105, 68.28 111.2, 55.87 111.2 C45.52 111.2, 35.17 111.2, 18.62 111.2 C6.21 111.2, 0 105, 0 92.58 C0 65.86, 0 39.13, 0 18.62 C0 6.21, 6.21 0, 18.62 0" stroke="none" stroke-width="0" fill="#1e1e1e"></path><path d="M18.62 0 C30.51 0, 42.4 0, 55.87 0 M18.62 0 C33.17 0, 47.71 0, 55.87 0 M55.87 0 C68.28 0, 74.49 6.21, 74.49 18.62 M55.87 0 C68.28 0, 74.49 6.21, 74.49 18.62 M74.49 18.62 C74.49 47.15, 74.49 75.68, 74.49 92.58 M74.49 18.62 C74.49 45.99, 74.49 73.35, 74.49 92.58 M74.49 92.58 C74.49 105, 68.28 111.2, 55.87 111.2 M74.49 92.58 C74.49 105, 68.28 111.2, 55.87 111.2 M55.87 111.2 C44.09 111.2, 32.31 111.2, 18.62 111.2 M55.87 111.2 C42.35 111.2, 28.83 111.2, 18.62 111.2 M18.62 111.2 C6.21 111.2, 0 105, 0 92.58 M18.62 111.2 C6.21 111.2, 0 105, 0 92.58 M0 92.58 C0 63.38, 0 34.17, 0 18.62 M0 92.58 C0 71.48, 0 50.38, 0 18.62 M0 18.62 C0 6.21, 6.21 0, 18.62 0 M0 18.62 C0 6.21, 6.21 0, 18.62 0" stroke="#1e1e1e" stroke-width="2" fill="none"></path></g></svg>