<?xml version="1.0" standalone="no"?>
<!DOCTYPE svg PUBLIC "-//W3C//DTD SVG 1.1//EN" "http://www.w3.org/Graphics/SVG/1.1/DTD/svg11.dtd">
<svg version="1.1" xmlns="http://www.w3.org/2000/svg" viewBox="0 0 330.37306257676573 363.57129695003005" width="330.37306257676573" height="363.57129695003005"><!-- svg-source:excalidraw --><metadata></metadata><defs><style class="style-fonts">
      </style></defs><g stroke-linecap="round" transform="translate(243.86244933858688 10) rotate(0 38.255306619089424 171.78564847501502)"><path d="M19.13 0 C33.61 0, 48.09 0, 57.38 0 C70.13 0, 76.51 6.38, 76.51 19.13 C76.51 93.38, 76.51 167.62, 76.51 324.44 C76.51 337.2, 70.13 343.57, 57.38 343.57 C46.77 343.57, 36.16 343.57, 19.13 343.57 C6.38 343.57, 0 337.2, 0 324.44 C0 209.43, 0 94.41, 0 19.13 C0 6.38, 6.38 0, 19.13 0" stroke="none" stroke-width="0" fill="#e9ecef"></path><path d="M19.13 0 C33.18 0, 47.24 0, 57.38 0 M19.13 0 C32.24 0, 45.36 0, 57.38 0 M57.38 0 C70.13 0, 76.51 6.38, 76.51 19.13 M57.38 0 C70.13 0, 76.51 6.38, 76.51 19.13 M76.51 19.13 C76.51 89.69, 76.51 160.25, 76.51 324.44 M76.51 19.13 C76.51 110.51, 76.51 201.89, 76.51 324.44 M76.51 324.44 C76.51 337.2, 70.13 343.57, 57.38 343.57 M76.51 324.44 C76.51 337.2, 70.13 343.57, 57.38 343.57 M57.38 343.57 C49.29 343.57, 41.19 343.57, 19.13 343.57 M57.38 343.57 C48.01 343.57, 38.63 343.57, 19.13 343.57 M19.13 343.57 C6.38 343.57, 0 337.2, 0 324.44 M19.13 343.57 C6.38 343.57, 0 337.2, 0 324.44 M0 324.44 C0 253.77, 0 183.09, 0 19.13 M0 324.44 C0 227.18, 0 129.91, 0 19.13 M0 19.13 C0 6.38, 6.38 0, 19.13 0 M0 19.13 C0 6.38, 6.38 0, 19.13 0" stroke="transparent" stroke-width="2" fill="none"></path></g><g stroke-linecap="round" transform="translate(126.93122469424816 131.16284987903236) rotate(0 38.255306358281814 111.20422336435695)"><path d="M19.13 0 C30.14 0, 41.15 0, 57.38 0 C70.13 0, 76.51 6.38, 76.51 19.13 C76.51 59.02, 76.51 98.91, 76.51 203.28 C76.51 216.03, 70.13 222.41, 57.38 222.41 C47.71 222.41, 38.03 222.41, 19.13 222.41 C6.38 222.41, 0 216.03, 0 203.28 C0 148.68, 0 94.07, 0 19.13 C0 6.38, 6.38 0, 19.13 0" stroke="none" stroke-width="0" fill="#1e1e1e"></path><path d="M19.13 0 C31.88 0, 44.64 0, 57.38 0 M19.13 0 C31.94 0, 44.76 0, 57.38 0 M57.38 0 C70.13 0, 76.51 6.38, 76.51 19.13 M57.38 0 C70.13 0, 76.51 6.38, 76.51 19.13 M76.51 19.13 C76.51 85.76, 76.51 152.4, 76.51 203.28 M76.51 19.13 C76.51 92.71, 76.51 166.29, 76.51 203.28 M76.51 203.28 C76.51 216.03, 70.13 222.41, 57.38 222.41 M76.51 203.28 C76.51 216.03, 70.13 222.41, 57.38 222.41 M57.38 222.41 C48.59 222.41, 39.79 222.41, 19.13 222.41 M57.38 222.41 C44.67 222.41, 31.96 222.41, 19.13 222.41 M19.13 222.41 C6.38 222.41, 0 216.03, 0 203.28 M19.13 222.41 C6.38 222.41, 0 216.03, 0 203.28 M0 203.28 C0 135.48, 0 67.68, 0 19.13 M0 203.28 C0 145.82, 0 88.35, 0 19.13 M0 19.13 C0 6.38, 6.38 0, 19.13 0 M0 19.13 C0 6.38, 6.38 0, 19.13 0" stroke="#1e1e1e" stroke-width="2" fill="none"></path></g><g stroke-linecap="round" transform="translate(10 242.36707287912668) rotate(0 38.255306358281814 55.60211159468736)"><path d="M19.13 0 C32.22 0, 45.3 0, 57.38 0 C70.13 0, 76.51 6.38, 76.51 19.13 C76.51 34.08, 76.51 49.04, 76.51 92.08 C76.51 104.83, 70.13 111.2, 57.38 111.2 C46.54 111.2, 35.69 111.2, 19.13 111.2 C6.38 111.2, 0 104.83, 0 92.08 C0 66.8, 0 41.53, 0 19.13 C0 6.38, 6.38 0, 19.13 0" stroke="none" stroke-width="0" fill="#1e1e1e"></path><path d="M19.13 0 C28.84 0, 38.55 0, 57.38 0 M19.13 0 C33.65 0, 48.18 0, 57.38 0 M57.38 0 C70.13 0, 76.51 6.38, 76.51 19.13 M57.38 0 C70.13 0, 76.51 6.38, 76.51 19.13 M76.51 19.13 C76.51 35.97, 76.51 52.8, 76.51 92.08 M76.51 19.13 C76.51 35.89, 76.51 52.66, 76.51 92.08 M76.51 92.08 C76.51 104.83, 70.13 111.2, 57.38 111.2 M76.51 92.08 C76.51 104.83, 70.13 111.2, 57.38 111.2 M57.38 111.2 C44.7 111.2, 32.01 111.2, 19.13 111.2 M57.38 111.2 C45.49 111.2, 33.59 111.2, 19.13 111.2 M19.13 111.2 C6.38 111.2, 0 104.83, 0 92.08 M19.13 111.2 C6.38 111.2, 0 104.83, 0 92.08 M0 92.08 C0 74.46, 0 56.85, 0 19.13 M0 92.08 C0 66.85, 0 41.63, 0 19.13 M0 19.13 C0 6.38, 6.38 0, 19.13 0 M0 19.13 C0 6.38, 6.38 0, 19.13 0" stroke="#1e1e1e" stroke-width="2" fill="none"></path></g></svg>