<?xml version="1.0" standalone="no"?>
<!DOCTYPE svg PUBLIC "-//W3C//DTD SVG 1.1//EN" "http://www.w3.org/Graphics/SVG/1.1/DTD/svg11.dtd">
<svg version="1.1" xmlns="http://www.w3.org/2000/svg" viewBox="0 0 68.22816003767184 71.88225683219707" width="68.22816003767184" height="71.88225683219707"><!-- svg-source:excalidraw --><metadata></metadata><defs><style class="style-fonts">
      </style></defs><g stroke-linecap="round" transform="translate(15.441865795378249 13.047207312555543) rotate(0 18.313145775014277 24.417524759820765)"><path d="M9.16 0 C15.27 0, 21.37 0, 27.47 0 M9.16 0 C15.18 0, 21.19 0, 27.47 0 M27.47 0 C33.57 0, 36.63 3.05, 36.63 9.16 M27.47 0 C33.57 0, 36.63 3.05, 36.63 9.16 M36.63 9.16 C36.63 17.72, 36.63 26.28, 36.63 39.68 M36.63 9.16 C36.63 18.69, 36.63 28.22, 36.63 39.68 M36.63 39.68 C36.63 45.78, 33.57 48.84, 27.47 48.84 M36.63 39.68 C36.63 45.78, 33.57 48.84, 27.47 48.84 M27.47 48.84 C23.49 48.84, 19.5 48.84, 9.16 48.84 M27.47 48.84 C22.92 48.84, 18.37 48.84, 9.16 48.84 M9.16 48.84 C3.05 48.84, 0 45.78, 0 39.68 M9.16 48.84 C3.05 48.84, 0 45.78, 0 39.68 M0 39.68 C0 27.83, 0 15.98, 0 9.16 M0 39.68 C0 31.48, 0 23.28, 0 9.16 M0 9.16 C0 3.05, 3.05 0, 9.16 0 M0 9.16 C0 3.05, 3.05 0, 9.16 0" stroke="#1e1e1e" stroke-width="4" fill="none"></path></g><g stroke-linecap="round"><g transform="translate(27.398119733277895 27.64618798371731) rotate(0 0 12.76370744754098)"><path d="M0 0 C0 4.25, 0 21.27, 0 25.53 M0 0 C0 4.25, 0 21.27, 0 25.53" stroke="#1e1e1e" stroke-width="4" fill="none"></path></g></g><mask></mask><g stroke-linecap="round"><g transform="translate(39.8754960397041 27.864953449055122) rotate(0 0 12.76370744754098)"><path d="M0 0 C0 4.25, 0 21.27, 0 25.53 M0 0 C0 4.25, 0 21.27, 0 25.53" stroke="#1e1e1e" stroke-width="4" fill="none"></path></g></g><mask></mask><g stroke-linecap="round" transform="translate(10 15.43413564176467) rotate(0 24.11408001883592 1.9246006831054672)"><path d="M0 0 C13.49 0, 26.99 0, 48.23 0 M0 0 C16.15 0, 32.3 0, 48.23 0 M48.23 0 C48.23 1.53, 48.23 3.06, 48.23 3.85 M48.23 0 C48.23 1.53, 48.23 3.06, 48.23 3.85 M48.23 3.85 C33.57 3.85, 18.9 3.85, 0 3.85 M48.23 3.85 C35.74 3.85, 23.26 3.85, 0 3.85 M0 3.85 C0 2.64, 0 1.44, 0 0 M0 3.85 C0 2.42, 0 1, 0 0" stroke="#1e1e1e" stroke-width="4" fill="none"></path></g><g stroke-linecap="round" transform="translate(18.151216418689728 10) rotate(0 15.170359753582318 1.1321205892860462)"><path d="M0 0 C8.36 0, 16.71 0, 30.34 0 M0 0 C8.92 0, 17.85 0, 30.34 0 M30.34 0 C30.34 0.56, 30.34 1.12, 30.34 2.26 M30.34 0 C30.34 0.47, 30.34 0.94, 30.34 2.26 M30.34 2.26 C20.71 2.26, 11.09 2.26, 0 2.26 M30.34 2.26 C23.69 2.26, 17.04 2.26, 0 2.26 M0 2.26 C0 1.75, 0 1.24, 0 0 M0 2.26 C0 1.65, 0 1.03, 0 0" stroke="#1e1e1e" stroke-width="4" fill="none"></path></g></svg>