<?xml version="1.0" standalone="no"?>
<!DOCTYPE svg PUBLIC "-//W3C//DTD SVG 1.1//EN" "http://www.w3.org/Graphics/SVG/1.1/DTD/svg11.dtd">
<svg version="1.1" xmlns="http://www.w3.org/2000/svg" viewBox="0 0 318.0930778302445 363.57129695003005" width="318.0930778302445" height="363.57129695003005"><!-- svg-source:excalidraw --><metadata></metadata><defs><style class="style-fonts">
      </style></defs><g stroke-linecap="round" transform="translate(234.60962537628984 10) rotate(0 36.741726226977335 171.78564847501502)"><path d="M18.37 0 C32.23 0, 46.09 0, 55.11 0 C67.36 0, 73.48 6.12, 73.48 18.37 C73.48 111.09, 73.48 203.8, 73.48 325.2 C73.48 337.45, 67.36 343.57, 55.11 343.57 C47.03 343.57, 38.95 343.57, 18.37 343.57 C6.12 343.57, 0 337.45, 0 325.2 C0 209.1, 0 93.01, 0 18.37 C0 6.12, 6.12 0, 18.37 0" stroke="none" stroke-width="0" fill="#1e1e1e"></path><path d="M18.37 0 C30.09 0, 41.81 0, 55.11 0 M18.37 0 C27.57 0, 36.77 0, 55.11 0 M55.11 0 C67.36 0, 73.48 6.12, 73.48 18.37 M55.11 0 C67.36 0, 73.48 6.12, 73.48 18.37 M73.48 18.37 C73.48 130.34, 73.48 242.32, 73.48 325.2 M73.48 18.37 C73.48 93.05, 73.48 167.72, 73.48 325.2 M73.48 325.2 C73.48 337.45, 67.36 343.57, 55.11 343.57 M73.48 325.2 C73.48 337.45, 67.36 343.57, 55.11 343.57 M55.11 343.57 C41.95 343.57, 28.78 343.57, 18.37 343.57 M55.11 343.57 C42.76 343.57, 30.41 343.57, 18.37 343.57 M18.37 343.57 C6.12 343.57, 0 337.45, 0 325.2 M18.37 343.57 C6.12 343.57, 0 337.45, 0 325.2 M0 325.2 C0 260.29, 0 195.38, 0 18.37 M0 325.2 C0 251.68, 0 178.17, 0 18.37 M0 18.37 C0 6.12, 6.12 0, 18.37 0 M0 18.37 C0 6.12, 6.12 0, 18.37 0" stroke="#1e1e1e" stroke-width="2" fill="none"></path></g><g stroke-linecap="round" transform="translate(122.30481271211283 131.16284987903236) rotate(0 36.74172597648976 111.20422336435695)"><path d="M18.37 0 C29.49 0, 40.61 0, 55.11 0 C67.36 0, 73.48 6.12, 73.48 18.37 C73.48 64.57, 73.48 110.78, 73.48 204.04 C73.48 216.28, 67.36 222.41, 55.11 222.41 C44.19 222.41, 33.27 222.41, 18.37 222.41 C6.12 222.41, 0 216.28, 0 204.04 C0 149.89, 0 95.75, 0 18.37 C0 6.12, 6.12 0, 18.37 0" stroke="none" stroke-width="0" fill="#1e1e1e"></path><path d="M18.37 0 C31.37 0, 44.36 0, 55.11 0 M18.37 0 C31.37 0, 44.36 0, 55.11 0 M55.11 0 C67.36 0, 73.48 6.12, 73.48 18.37 M55.11 0 C67.36 0, 73.48 6.12, 73.48 18.37 M73.48 18.37 C73.48 59.57, 73.48 100.77, 73.48 204.04 M73.48 18.37 C73.48 87.13, 73.48 155.89, 73.48 204.04 M73.48 204.04 C73.48 216.28, 67.36 222.41, 55.11 222.41 M73.48 204.04 C73.48 216.28, 67.36 222.41, 55.11 222.41 M55.11 222.41 C46.66 222.41, 38.22 222.41, 18.37 222.41 M55.11 222.41 C41.02 222.41, 26.93 222.41, 18.37 222.41 M18.37 222.41 C6.12 222.41, 0 216.28, 0 204.04 M18.37 222.41 C6.12 222.41, 0 216.28, 0 204.04 M0 204.04 C0 144.04, 0 84.04, 0 18.37 M0 204.04 C0 163.25, 0 122.47, 0 18.37 M0 18.37 C0 6.12, 6.12 0, 18.37 0 M0 18.37 C0 6.12, 6.12 0, 18.37 0" stroke="#1e1e1e" stroke-width="2" fill="none"></path></g><g stroke-linecap="round" transform="translate(10 242.36707287912577) rotate(0 36.74172597648885 55.60211159468736)"><path d="M18.37 0 C30.38 0, 42.39 0, 55.11 0 C67.36 0, 73.48 6.12, 73.48 18.37 C73.48 35.07, 73.48 51.76, 73.48 92.83 C73.48 105.08, 67.36 111.2, 55.11 111.2 C40.71 111.2, 26.31 111.2, 18.37 111.2 C6.12 111.2, 0 105.08, 0 92.83 C0 66.58, 0 40.32, 0 18.37 C0 6.12, 6.12 0, 18.37 0" stroke="none" stroke-width="0" fill="#1e1e1e"></path><path d="M18.37 0 C26.17 0, 33.97 0, 55.11 0 M18.37 0 C26.06 0, 33.74 0, 55.11 0 M55.11 0 C67.36 0, 73.48 6.12, 73.48 18.37 M55.11 0 C67.36 0, 73.48 6.12, 73.48 18.37 M73.48 18.37 C73.48 47.8, 73.48 77.22, 73.48 92.83 M73.48 18.37 C73.48 39.28, 73.48 60.19, 73.48 92.83 M73.48 92.83 C73.48 105.08, 67.36 111.2, 55.11 111.2 M73.48 92.83 C73.48 105.08, 67.36 111.2, 55.11 111.2 M55.11 111.2 C46.05 111.2, 36.99 111.2, 18.37 111.2 M55.11 111.2 C42.08 111.2, 29.04 111.2, 18.37 111.2 M18.37 111.2 C6.12 111.2, 0 105.08, 0 92.83 M18.37 111.2 C6.12 111.2, 0 105.08, 0 92.83 M0 92.83 C0 71.12, 0 49.4, 0 18.37 M0 92.83 C0 72.25, 0 51.67, 0 18.37 M0 18.37 C0 6.12, 6.12 0, 18.37 0 M0 18.37 C0 6.12, 6.12 0, 18.37 0" stroke="#1e1e1e" stroke-width="2" fill="none"></path></g></svg>