<?xml version="1.0" standalone="no"?>
<!DOCTYPE svg PUBLIC "-//W3C//DTD SVG 1.1//EN" "http://www.w3.org/Graphics/SVG/1.1/DTD/svg11.dtd">
<svg version="1.1" xmlns="http://www.w3.org/2000/svg" viewBox="0 0 32.272647810030435 29.245472647579504" width="32.272647810030435" height="29.245472647579504"><!-- svg-source:excalidraw --><metadata></metadata><defs><style class="style-fonts">
      </style></defs><g stroke-linecap="round"><g transform="translate(10 10) rotate(0 6.1079595568074865 0)"><path d="M0 0 C2.04 0, 10.18 0, 12.22 0 M0 0 C2.04 0, 10.18 0, 12.22 0" stroke="#1e1e1e" stroke-width="2" fill="none"></path></g></g><mask></mask><g stroke-linecap="round"><g transform="translate(10.056724767010564 14.677655157406093) rotate(0 6.1079595568074865 0)"><path d="M0 0 C2.04 0, 10.18 0, 12.22 0 M0 0 C2.04 0, 10.18 0, 12.22 0" stroke="#1e1e1e" stroke-width="2" fill="none"></path></g></g><mask></mask><g stroke-linecap="round"><g transform="translate(10.056728696415462 19.245472647579504) rotate(0 6.1079595568074865 0)"><path d="M0 0 C2.04 0, 10.18 0, 12.22 0 M0 0 C2.04 0, 10.18 0, 12.22 0" stroke="#1e1e1e" stroke-width="2" fill="none"></path></g></g><mask></mask></svg>